<svg id="Layer_1" data-name="Layer 1" xmlns="http://www.w3.org/2000/svg" xmlns:xlink="http://www.w3.org/1999/xlink" viewBox="0 0 1440 1000"><defs><style>.cls-1{fill:url(#New_Gradient_Swatch_4);}.cls-2,.cls-3{fill:#fff;}.cls-2,.cls-4{opacity:0.1;}.cls-3{opacity:0.6;}.cls-4{fill:#6a6d89;}</style><linearGradient id="New_Gradient_Swatch_4" x1="58.98" y1="-68.57" x2="1377.54" y2="1065.58" gradientUnits="userSpaceOnUse"><stop offset="0" stop-color="#15eded"/><stop offset="1" stop-color="#029cf5"/></linearGradient></defs><title>hero-bg</title><rect class="cls-1" width="1440" height="1000"/><path class="cls-2" d="M1914.18,1673.62C1678.12,1584,1693.12,1753,1520.62,1753H1343.89c-106.66.41-94.75-160.07-249.33-184.07-144.19-22.39-152.42,42.57-225.33,43-26.62.16-58.31,1-88.84-9.18v647.66h1440V1555.5c-28-16.24-56.56-40.39-80.87-40.53C2066.6,1514.56,2050.6,1725.43,1914.18,1673.62Z" transform="translate(-780.39 -1250.43)"/><path class="cls-2" d="M1914.18,2003.93c-164.83,1.81-142.66,75.47-249.33,75.08h-321c-106.66.39-84.5-203.39-249.33-205.2-145.91-1.6-152.42,71.43-225.33,71.83-26.62.14-58.31.9-88.84-8.69v313.48h1440V1892.27c-28-15.35-56.56-38.18-80.87-38.31C2066.6,1853.57,2060.1,2002.33,1914.18,2003.93Z" transform="translate(-780.39 -1250.43)"/><path class="cls-3" d="M1761,2121.51l-2.37,3.23.81.59c.79-1.08,1.57-2.15,2.37-3.23l-.81-.59Zm-11.89,16.08.8.6,2.41-3.2-.81-.6C1750.67,2135.46,1749.86,2136.53,1749.06,2137.59Zm4.79-6.41.8.6c.79-1.07,1.58-2.15,2.38-3.22l-.81-.6C1755.43,2129,1754.64,2130.12,1753.85,2131.18Zm9.47-12.89.81.59c.78-1.07,1.58-2.14,2.38-3.21l-.81-.6C1764.91,2116.14,1764.11,2117.21,1763.32,2118.29Zm4.79-6.43.79.61,2.42-3.18-.79-.61C1769.71,2109.74,1768.91,2110.8,1768.11,2111.86Zm94.61-70.14.27,1c1.27-.34,2.55-.68,3.85-1l-.24-1C1865.29,2041,1864,2041.37,1862.72,2041.72Zm-140.37,125.36.64.77c1-.86,2-1.75,3-2.65l-.67-.74C1724.37,2165.35,1723.37,2166.23,1722.35,2167.08Zm50.63-61.57.79.62c.82-1.05,1.64-2.09,2.48-3.14l-.78-.62C1774.63,2103.42,1773.8,2104.46,1773,2105.51ZM1716.07,2172l.58.81c1.09-.77,2.17-1.57,3.22-2.39l-.61-.79C1718.22,2170.39,1717.15,2171.18,1716.07,2172Zm28.1-28,.78.62c.83-1,1.65-2.09,2.47-3.15l-.79-.61C1745.81,2141.82,1745,2142.86,1744.17,2143.9Zm-5.06,6.18.76.64c.86-1,1.72-2,2.57-3.08l-.78-.63C1740.82,2148,1740,2149.07,1739.11,2150.08Zm-5.28,6,.73.68c.91-1,1.8-2,2.69-3l-.75-.66C1735.62,2154.09,1734.73,2155.08,1733.83,2156.05Zm-5.57,5.69.7.72c1-.92,1.9-1.86,2.84-2.83l-.72-.69C1730.15,2159.89,1729.21,2160.83,1728.26,2161.74Zm104.58-108.54.46.89c1.17-.6,2.36-1.19,3.57-1.76l-.43-.91C1835.22,2052,1834,2052.59,1832.84,2053.2Zm-7,3.83.5.86c1.14-.66,2.3-1.31,3.47-1.95l-.47-.87C1828.11,2055.71,1827,2056.36,1825.8,2057Zm14.28-7.28.4.91c1.21-.53,2.43-1,3.67-1.56l-.39-.93C1842.52,2048.69,1841.29,2049.21,1840.08,2049.75Zm15-5.73.32,1c1.25-.41,2.51-.8,3.8-1.19l-.29-1C1857.58,2043.21,1856.3,2043.61,1855,2044Zm-7.55,2.67.36.94c1.23-.47,2.47-.93,3.73-1.38l-.33-.94C1850,2045.76,1848.73,2046.22,1847.49,2046.69ZM1819,2061.24l.55.84c1.1-.73,2.22-1.44,3.36-2.14l-.53-.85C1821.22,2059.79,1820.09,2060.51,1819,2061.24Zm-35.81,31.9.75.66c.87-1,1.76-2,2.65-3l-.74-.67C1784.93,2091.13,1784,2092.13,1783.17,2093.14Zm29.22-27.32.59.8c1.07-.78,2.15-1.55,3.24-2.32l-.57-.82C1814.55,2064.25,1813.46,2065,1812.39,2065.82Zm-23.85,21.37.73.68c.91-1,1.82-1.93,2.76-2.88l-.72-.7C1790.37,2085.25,1789.45,2086.22,1788.54,2087.19ZM1778,2099.26l.77.63c.85-1,1.7-2,2.56-3.07l-.76-.64C1779.69,2097.2,1778.84,2098.23,1778,2099.26Zm16.14-17.81.71.71c.94-.93,1.9-1.85,2.87-2.77l-.69-.72C1796.05,2079.58,1795.08,2080.51,1794.13,2081.45Zm5.84-5.5.67.74c1-.88,2-1.76,3-2.63l-.65-.76C1802,2074.18,1801,2075.06,1800,2076Zm6.08-5.22.64.77c1-.84,2.06-1.66,3.11-2.48l-.61-.79C1808.13,2069.05,1807.08,2069.88,1806.05,2070.73Zm-93.26,103.44c-1.11.72-2.23,1.41-3.38,2.08l.5.86q1.74-1,3.42-2.1l-.54-.84Zm-145.06,14.22h4v-1h-4Zm8,0h4v-1h-4Zm-16,0h4v-1h-4Zm32,0h4v-1h-4Zm-40,0h4v-1h-4Zm32,0h4v-1h-4Zm-48,0h4v-1h-4Zm-16,0h4v-1h-4Zm-8,0h4v-1h-4Zm16,0h4v-1h-4Zm16,0h4v-1h-4Zm56,0h4v-1h-4Zm48,0h4v-1h-4Zm27.93-1.47c-1.3.13-2.62.23-4,.31l0,1c1.36-.07,2.69-.18,4-.3l-.1-1Zm-7.94.45-2,0h-2v1h2c.69,0,1.36,0,2,0l0-1Zm-60,1h4v-1h-4Zm91-6.94c-1.22.48-2.45.94-3.72,1.37l.32.95c1.28-.44,2.54-.9,3.77-1.39l-.37-.93ZM1687.4,2185l.23,1c1.31-.31,2.61-.65,3.88-1l-.28-1C1690,2184.37,1688.7,2184.7,1687.4,2185Zm-31.67,3.39h4v-1h-4Zm23.87-1.93.14,1c1.34-.19,2.66-.41,4-.65l-.18-1C1682.24,2186.06,1680.93,2186.27,1679.6,2186.46Zm-63.87,1.93h4v-1h-4Zm8,0h4v-1h-4Zm-120,0h4v-1h-4Zm198.65-8.5.41.91c1.22-.56,2.42-1.14,3.61-1.75l-.46-.89C1704.77,2178.76,1703.58,2179.34,1702.38,2179.89Zm-62.65,8.5h4v-1h-4Zm-8,0h4v-1h-4Zm238.77-148.61.22,1c1.28-.29,2.58-.57,3.89-.84l-.2-1C1873.09,2039.21,1871.79,2039.49,1870.5,2039.78Zm241.95-117.87.42.9c1.2-.55,2.41-1.06,3.63-1.54l-.36-.93C2114.89,1920.82,2113.67,1921.35,2112.45,1921.91Zm-13.77,8.24.6.8c1.07-.78,2.15-1.55,3.25-2.28l-.56-.83C2100.87,1928.58,2099.77,1929.35,2098.68,1930.15Zm6.68-4.47.52.86c1.13-.69,2.28-1.34,3.44-2l-.47-.88C2107.67,1924.32,2106.51,1925,2105.36,1925.68Zm14.58-6.68.3,1c1.25-.39,2.52-.75,3.81-1.06l-.24-1Q2121.85,1918.4,2119.94,1919Zm3.87-1.08ZM2053,1975l.72.7c.94-1,1.88-1.9,2.8-2.85l-.71-.7C2054.86,1973.05,2053.93,1974,2053,1975Zm16.58-17.35.73.69,2.74-2.91-.73-.69Zm-5.48,5.83.72.69,2.75-2.92-.73-.68Zm-5.51,5.8.72.69,2.76-2.89-.72-.69Zm22.09-23.17.71.7c.94-1,1.89-1.88,2.83-2.8l-.69-.72Zm5.75-5.59.68.73c1-.91,2-1.81,2.94-2.69l-.67-.75C2088.38,1938.65,2087.39,1939.55,2086.41,1940.47Zm-8.57,8.44-2.78,2.88.73.7c.92-1,1.85-1.93,2.77-2.88l-.71-.7Zm49.9-31.82.18,1c1.28-.23,2.58-.42,3.91-.56l-.11-1C2130.37,1916.67,2129.05,1916.86,2127.74,1917.09Zm79-8.09.33,1c1.26-.45,2.51-.92,3.76-1.42l-.37-.93C2209.26,1908.1,2208,1908.56,2206.78,1909Zm-7.59,2.39.26,1c1.29-.35,2.57-.73,3.85-1.13l-.29-1C2201.73,1910.67,2200.46,1911,2199.19,1911.39Zm-7.75,1.85.2,1c1.31-.27,2.61-.56,3.92-.87l-.23-1C2194,1912.69,2192.74,1913,2191.44,1913.24Zm26.33-8.86Zm0,0q-1.8.88-3.6,1.68l.4.91c1.22-.53,2.43-1.1,3.64-1.69Zm-34.18,10.21.14,1c1.32-.19,2.64-.39,4-.62l-.17-1C2186.21,1914.2,2184.9,1914.41,2183.59,1914.59Zm-23.86,1.68v1l4-.08,0-1Zm-16,.94,4,0v-1l-4,0Zm11-.91h-3v1h4v-1Zm13-.26.05,1c1.33-.06,2.66-.13,4-.22l-.06-1C2170.36,1915.9,2169,1916,2167.71,1916Zm-28.94.11c-1,0-2.05,0-3.05.07l.05,1c1,0,2-.07,3-.07h1v-1h-1Zm36.9-.65.09,1c1.33-.12,2.66-.26,4-.41l-.11-1C2178.31,1915.25,2177,1915.38,2175.67,1915.5Zm-83.28,19.63.65.76c1-.86,2-1.7,3.07-2.52l-.62-.79C2094.45,1933.41,2093.42,1934.26,2092.39,1935.13Zm-174.21,99.46,0,1c1.35,0,2.68-.11,4-.18l-.06-1C1920.85,2034.48,1919.52,2034.54,1918.18,2034.59Zm15.92-1.09.1,1c1.34-.13,2.67-.28,4-.44l-.12-1C1936.75,2033.22,1935.43,2033.36,1934.1,2033.5Zm-7.95.67.07,1q2-.14,4-.3l-.08-1C1928.81,2034,1927.49,2034.08,1926.15,2034.17Zm15.87-1.62.14,1c1.33-.19,2.65-.38,4-.59l-.16-1C1944.66,2032.18,1943.35,2032.37,1942,2032.55Zm105.27-52,.69.72c1-.93,1.93-1.86,2.87-2.79l-.7-.72C2049.21,1978.69,2048.25,1979.62,2047.29,1980.55Zm-97.39,50.78.17,1c1.33-.23,2.64-.48,3.94-.73l-.19-1Zm7.82-1.54.21,1c1.32-.28,2.62-.58,3.91-.89l-.23-1C1960.33,2029.22,1959,2029.51,1957.72,2029.79Zm-75.43,7.72c-1.33.21-2.64.44-3.94.67l.18,1c1.29-.24,2.6-.46,3.92-.67l-.15-1Zm4-.6.14,1c1.3-.18,2.62-.36,3.95-.52l-.12-1C1888.89,2036.55,1887.57,2036.73,1886.26,2036.91Zm8-1,.1,1c1.31-.13,2.63-.26,4-.37l-.09-1C1896.85,2035.68,1895.52,2035.8,1894.21,2035.94Zm8-.69.07,1c1.31-.09,2.64-.17,4-.24l-.06-1Q1904.17,2035.11,1902.19,2035.25Zm12-.54q-2,0-4,.12l0,1c1.31,0,2.64-.09,4-.12l0-1Zm51.3-6.76.26,1c1.3-.34,2.59-.7,3.86-1.06l-.27-1C1968.05,2027.26,1966.77,2027.61,1965.47,2028Zm57.42-26.88.58.81c1.09-.78,2.17-1.57,3.23-2.37l-.6-.8C2025,1999.51,2024,2000.29,2022.89,2001.07Zm9.49-7.27c-1,.83-2.06,1.66-3.11,2.49l.61.79c1.06-.83,2.1-1.67,3.13-2.51l-.63-.77Zm-16.07,11.78.55.83q1.68-1.1,3.33-2.22l-.57-.83C2018.53,2004.11,2017.43,2004.85,2016.31,2005.58Zm19.14-14.33.65.77c1-.87,2-1.74,3-2.62l-.65-.75C2037.48,1989.52,2036.47,1990.39,2035.45,1991.25Zm-58.51,33.31Zm64.51-38.57.68.75,2.95-2.72-.69-.73C2043.42,1984.19,2042.45,1985.1,2041.45,1986Zm-31.91,23.79.5.86c1.16-.68,2.31-1.37,3.44-2.07l-.53-.85C2011.83,2008.41,2010.69,2009.1,2009.54,2009.78Zm-28.83,13.48.33.94c1.27-.45,2.52-.92,3.76-1.39l-.36-.93C1983.21,2022.35,1982,2022.81,1980.71,2023.26Zm-7.57,2.51.3,1c1.29-.4,2.56-.8,3.81-1.22l-.31-1C1975.69,2025,1974.42,2025.38,1973.14,2025.77Zm15-5.36.38.92c1.25-.51,2.48-1,3.69-1.57l-.4-.91C1990.6,2019.38,1989.38,2019.9,1988.14,2020.41Zm14.44-6.75.46.88c1.19-.62,2.37-1.26,3.53-1.91l-.49-.87C2004.93,2012.4,2003.76,2013,2002.58,2013.66Zm-7.14,3.54.42.91c1.22-.57,2.43-1.15,3.61-1.74l-.44-.9C1997.85,2016.06,1996.65,2016.64,1995.44,2017.2Zm-651.71,170.19v1h4v-1h-4Zm-342.16-176.25Zm3,2.81c1.17.63,2.36,1.24,3.56,1.85l.45-.89c-1.19-.6-2.37-1.22-3.54-1.84Zm-7-4c1.14.68,2.29,1.36,3.46,2l.5-.87c-1.17-.66-2.31-1.33-3.45-2Zm18.17,8.35Zm-4-.77c1.19.57,2.41,1.13,3.63,1.68l.41-.91c-1.22-.55-2.42-1.11-3.61-1.67Zm-20.91-11.85c1.1.73,2.23,1.46,3.36,2.18l.54-.85c-1.13-.71-2.25-1.44-3.35-2.17Zm-6.58-4.58c1.07.78,2.16,1.56,3.26,2.32l.57-.82c-1.1-.76-2.18-1.53-3.25-2.31Zm-24.41-20.75c1,.92,1.92,1.84,2.9,2.76l.68-.73c-1-.91-1.93-1.83-2.88-2.75Zm59.21,40.45c1.22.52,2.46,1,3.72,1.51l.36-.93q-1.87-.74-3.69-1.5Zm-53.37-35c1,.9,2,1.79,3,2.68l.67-.75-3-2.67Zm-11.53-11.13c.94.94,1.88,1.89,2.83,2.83l.7-.71c-.95-.94-1.89-1.88-2.82-2.83Zm23.71,21.54c1,.83,2.1,1.65,3.17,2.46l.6-.8c-1.06-.81-2.11-1.62-3.15-2.44Zm-6.18-5.1q1.52,1.3,3.06,2.58l.64-.77c-1-.85-2-1.71-3-2.57Zm85.75,40.9c1.31.24,2.62.46,4,.68l.16-1c-1.32-.21-2.63-.44-3.93-.67Zm31.84,3.45c1.32.06,2.65.1,4,.14l0-1h0c-1.35,0-2.67-.08-4-.14Zm-8-.46c1.32.1,2.65.18,4,.26l0-1c-1.34-.07-2.66-.16-4-.26Zm16,.7,4,.16,0-1-4-.16Zm15.93,1c1.34.13,2.66.27,4,.42l.11-1-4-.43Zm-39.9-2.45c1.32.14,2.64.27,4,.39l.09-1h0c-1.34-.12-2.66-.25-4-.39Zm32,1.81c1.34.08,2.66.18,4,.29l.08-1h0c-1.32-.11-2.66-.21-4-.29Zm-55.66-5.67c1.29.29,2.6.57,3.92.83l.2-1c-1.32-.26-2.62-.54-3.9-.82Zm-15.48-4.15q1.89.6,3.84,1.17l.28-1c-1.29-.38-2.56-.76-3.82-1.16Zm7.7,2.24c1.28.35,2.57.68,3.88,1l.24-1q-2-.48-3.87-1ZM948.57,1969c.92,1,1.84,1.92,2.78,2.88l.72-.69c-.94-1-1.86-1.92-2.78-2.88Zm78.29,53.83-.35.94c1.25.46,2.51.9,3.78,1.34l.33-.95h0C1029.35,2023.73,1028.09,2023.29,1026.86,2022.83Zm38.48,10.54c1.31.19,2.63.37,4,.53l.13-1c-1.33-.17-2.65-.34-4-.53ZM863.72,1916.22l0,1,4,0,0-1Zm-24,.75c1.34.07,2.68.13,4,.17l0-1c-1.32,0-2.65-.1-4-.17Zm-8-.59c1.34.13,2.67.24,4,.34l.07-1c-1.32-.09-2.64-.21-4-.34ZM815.85,1914c1.31.28,2.63.54,3.94.78l.17-1c-1.29-.23-2.6-.49-3.9-.77Zm7.9,1.44c1.33.2,2.65.38,4,.54l.12-1c-1.31-.16-2.63-.34-3.94-.54Zm24,1.85,4,0v-1c-1.33,0-2.66,0-4,0Zm8-1v1c1.35,0,2.68,0,4,0v-1C858.4,1916.29,857.07,1916.3,855.73,1916.3ZM793,1906.45c1.23.56,2.45,1.1,3.68,1.6l.38-.92h0c-1.21-.5-2.43-1-3.65-1.59Zm-12.62-6.87c.66.42,1.32.85,2,1.24l.51-.85c-.83-.5-1.66-1-2.49-1.57Zm5.45,3.25c1.18.66,2.37,1.28,3.55,1.88l.45-.89c-1.17-.59-2.34-1.21-3.52-1.86Zm335.41,133.91-.14,1c1.33.18,2.64.37,4,.57l.15-1h0Q1123.25,2037,1121.25,2036.74ZM808.06,1912c1.3.37,2.59.72,3.88,1l.24-1c-1.28-.32-2.56-.66-3.84-1Zm-7.63-2.5c1.27.47,2.53.91,3.79,1.32l.31-.95h0c-1.25-.41-2.5-.84-3.75-1.31Zm86.88,10.08c1.27.37,2.52.79,3.75,1.24l.35-.94c-1.26-.46-2.53-.88-3.82-1.26Zm21.14,10.63c1.07.76,2.13,1.55,3.19,2.37l.61-.79c-1.07-.82-2.14-1.62-3.22-2.4Zm-36.73-13c1.34,0,2.66.11,3.95.23l.09-1c-1.31-.11-2.65-.19-4-.23Zm54.76,28.7c.93.93,1.87,1.87,2.81,2.83l.71-.7h0c-1-1-1.89-1.91-2.83-2.84Zm-5.76-5.53c1,.89,1.94,1.81,2.91,2.74l.69-.72c-1-.94-1.94-1.86-2.92-2.75Zm16.86,17,2.74,2.92.73-.69-2.74-2.91Zm-5.51-5.79,2.77,2.89.72-.69h0c-.92-1-1.85-1.94-2.76-2.89Zm-17.33-16.49c1,.84,2,1.71,3,2.59l.66-.75h0c-1-.89-2-1.76-3-2.61Zm581,253.31h4v-1h-4Zm-552.67-225.2,2.75,2.91.73-.68-2.75-2.91Zm-63.46-45.32c1.32.21,2.61.45,3.88.73l.22-1h0c-1.29-.29-2.61-.54-4-.74Zm22.19,8c1.14.66,2.26,1.35,3.38,2.08l.54-.84q-1.69-1.1-3.42-2.1Zm-7.06-3.6c1.21.53,2.4,1.1,3.58,1.7l.45-.89c-1.19-.61-2.4-1.19-3.63-1.72Zm11,4.84Zm462,261.25h4v-1h-4Zm-8,0h4v-1h-4Zm-8,0h4v-1h-4Zm32,0h4v-1h-4Zm-48-.25c1.31.1,2.65.16,4,.2l0-1c-1.34,0-2.66-.1-4-.19Zm40,.25h4v-1h-4Zm-47.83-2.12-.15,1c1.3.2,2.63.38,4,.53l.12-1h0C1330.5,2186.65,1329.19,2186.47,1327.9,2186.27Zm63.83,2.12h4v-1h-4Zm-94-11.93c1.15.69,2.31,1.35,3.5,2l.47-.88c-1.17-.63-2.32-1.29-3.45-2Zm-6.67-4.45c1.08.79,2.17,1.56,3.28,2.3l.56-.84c-1.1-.73-2.18-1.48-3.25-2.26Zm13.75,8.26c1.2.57,2.42,1.11,3.67,1.63l.38-.92c-1.23-.51-2.43-1.05-3.62-1.62Zm15.09,5.41c1.28.32,2.58.61,3.91.88l.2-1q-2-.39-3.87-.87ZM1284.77,2167c1,.87,2,1.73,3.09,2.56l.63-.78c-1-.83-2.06-1.67-3.07-2.54Zm27.44,16.33q1.88.68,3.81,1.26l.29-1c-1.27-.38-2.53-.8-3.76-1.24Zm151.52,5h4v-1h-4Zm-16,0h4v-1h-4Zm24,0h4v-1h-4Zm-16,0h4v-1h-4Zm24,0h4v-1h-4Zm-80,0h4v-1h-4Zm88,0h4v-1h-4Zm-72,0h4v-1h-4Zm-8,0h4v-1h-4Zm24,0h4v-1h-4Zm-8,0h4v-1h-4Zm16,0h4v-1h-4ZM1248.6,2124.3l2.36,3.23.81-.6-2.37-3.22Zm-74.27-70.78q1.79.9,3.54,1.83l.47-.88c-1.17-.63-2.36-1.24-3.56-1.84Zm13.83,7.87c1.13.73,2.23,1.46,3.32,2.2l.57-.82c-1.1-.75-2.21-1.49-3.34-2.22Zm24.84,19.89c1,.93,1.9,1.86,2.83,2.81l.71-.71c-.93-.94-1.88-1.89-2.84-2.82Zm-18.26-15.4c1.08.78,2.15,1.57,3.2,2.37l.61-.79c-1.06-.81-2.13-1.6-3.22-2.39Zm12.42,10c1,.89,2,1.78,2.95,2.68l.68-.73c-1-.91-2-1.81-3-2.7Zm-6.08-5.14c1,.83,2.06,1.68,3.07,2.53l.65-.76c-1-.86-2-1.71-3.1-2.55Zm-19.73-13.44c1.16.66,2.31,1.33,3.44,2l.51-.86c-1.13-.69-2.28-1.36-3.45-2Zm-36.8-14.91c1.3.34,2.58.7,3.84,1.07l.28-1c-1.27-.37-2.56-.73-3.86-1.08Zm22.56,7.8c1.23.53,2.44,1.08,3.63,1.63l.42-.9h0c-1.21-.56-2.42-1.11-3.66-1.64Zm-30.3-9.67c1.31.28,2.6.58,3.88.89l.24-1c-1.29-.31-2.59-.61-3.91-.9Zm22.92,6.7c1.25.46,2.49.94,3.71,1.44l.37-.93c-1.22-.5-2.47-1-3.73-1.45Zm-7.53-2.6c1.28.4,2.54.82,3.78,1.25l.32-.95c-1.25-.43-2.51-.85-3.8-1.26ZM1268,2149.75c.87,1,1.73,2,2.61,3l.75-.65c-.87-1-1.73-2-2.59-3Zm-9.93-12.58,2.43,3.19.79-.61c-.81-1.05-1.61-2.11-2.42-3.18Zm4.89,6.35c.83,1.05,1.66,2.1,2.5,3.13l.77-.63-2.49-3.12Zm-9.67-12.77,2.38,3.22.8-.6-2.38-3.21ZM1129,2039c1.32.23,2.63.47,3.92.73l.19-1c-1.3-.26-2.61-.5-3.94-.74Zm149.88,122.63q1.44,1.41,2.91,2.76l.68-.73c-1-.9-1.94-1.81-2.88-2.75Zm-5.55-5.79c.9,1,1.81,2,2.74,2.93l.72-.69c-.92-1-1.82-1.93-2.73-2.91Zm-29.46-37.94,2.37,3.22.81-.59c-.79-1.07-1.58-2.15-2.38-3.22ZM1218.6,2087c.92,1,1.83,1.94,2.72,2.92l.74-.67c-.9-1-1.81-2-2.73-2.94Zm5.39,5.89c.88,1,1.75,2,2.61,3l.76-.65c-.86-1-1.74-2-2.63-3Zm5.18,6.07,2.53,3.09.77-.63c-.83-1-1.68-2.07-2.53-3.1Zm5,6.22c.82,1,1.64,2.1,2.45,3.15l.79-.61c-.81-1.06-1.63-2.11-2.46-3.16Zm4.88,6.32c.81,1.06,1.61,2.13,2.4,3.19l.8-.6-2.4-3.19Z" transform="translate(-780.39 -1250.43)"/><path class="cls-3" d="M1763.25,1887.94l.93.36,1.44-3.73-.93-.36Zm-2.86,7.48.93.36c.47-1.25,1-2.49,1.43-3.74l-.93-.36C1761.34,1892.93,1760.86,1894.18,1760.39,1895.42Zm-5.72,14.95.93.36c.48-1.24,1-2.49,1.43-3.74l-.93-.35C1755.62,1907.88,1755.14,1909.13,1754.67,1910.37Zm18.88-48.49h0Zm59.46-98.94.69.72c1-.93,1.92-1.84,2.9-2.74l-.68-.73C1834.94,1761.09,1834,1762,1833,1762.94Zm-61,102.64.93.38c.5-1.23,1-2.47,1.51-3.7l-.92-.38C1773.05,1863.11,1772.54,1864.35,1772,1865.58Zm-1.49,3.72Zm-1.48,3.72.93.37c.49-1.24,1-2.48,1.48-3.72l-.93-.37C1770.05,1870.54,1769.56,1871.78,1769.07,1873Zm-2.93,7.46.93.36c.48-1.24,1-2.48,1.46-3.73l-.93-.36C1767.11,1878,1766.62,1879.23,1766.14,1880.48Zm-29.74,74.27.91.42c.56-1.21,1.11-2.42,1.66-3.65l-.91-.41C1737.51,1952.34,1737,1953.55,1736.4,1954.75Zm15.38-36.91.93.36c.49-1.24,1-2.48,1.45-3.73l-.93-.36C1752.75,1915.36,1752.26,1916.6,1751.78,1917.84ZM1733,1962l.89.44c.59-1.19,1.17-2.39,1.74-3.61l-.9-.43C1734.13,1959.58,1733.56,1960.78,1733,1962Zm8.29-18.18c-.53,1.23-1.06,2.46-1.59,3.67l.91.4c.54-1.22,1.07-2.44,1.6-3.68l-.92-.39Zm7.59-18.5.93.37,1.47-3.73-.93-.36Zm-3,7.42.93.38,1.5-3.71-.93-.37C1746.88,1930.25,1746.38,1931.49,1745.88,1932.71Zm-16.52,36.38.89.47c.61-1.17,1.23-2.36,1.83-3.56l-.89-.46C1730.59,1966.74,1730,1967.93,1729.36,1969.09Zm13.47-29,.92.39c.52-1.23,1-2.46,1.54-3.7l-.92-.38Zm64.94-146.1.83.55c.74-1.12,1.48-2.22,2.23-3.32l-.83-.56C1809.25,1791.78,1808.51,1792.89,1807.77,1794Zm4.52-6.62.82.58c.77-1.09,1.55-2.17,2.34-3.23l-.8-.6C1813.85,1785.21,1813.07,1786.29,1812.29,1787.39Zm-8.82,13.38.85.53c.7-1.14,1.41-2.27,2.12-3.39l-.85-.54C1804.88,1798.5,1804.17,1799.63,1803.47,1800.77Zm18.62-26.07.77.64c.86-1,1.72-2,2.6-3l-.75-.66C1823.83,1772.66,1823,1773.67,1822.09,1774.7Zm5.31-6,.74.68c.9-1,1.82-1.93,2.74-2.89l-.71-.69C1829.24,1766.73,1828.31,1767.7,1827.4,1768.68Zm-7.86,9.11c-.83,1-1.66,2.09-2.48,3.15l.79.61c.82-1,1.64-2.1,2.47-3.13l-.78-.63Zm-18.14,26.42c-.68,1.14-1.35,2.3-2,3.46l.87.5q1-1.74,2-3.45l-.86-.51Zm-7.81,14c-.62,1.17-1.23,2.36-1.84,3.55l.89.46c.6-1.19,1.22-2.37,1.84-3.55l-.89-.46Zm-13.79,28.89h0Zm-1.59,3.68.92.39,1.59-3.67-.91-.4C1779.27,1848.32,1778.74,1849.55,1778.21,1850.78Zm3.21-7.34.92.41c.54-1.22,1.08-2.43,1.63-3.64l-.91-.41C1782.51,1841,1782,1842.22,1781.42,1843.44Zm6.75-14.51.9.44c.58-1.2,1.17-2.39,1.76-3.58l-.89-.45Zm-1.74,3.61c-.57,1.21-1.14,2.42-1.7,3.63l.91.42c.56-1.21,1.13-2.41,1.7-3.62l-.91-.42Zm-11.34,25.62.92.39c.52-1.24,1-2.47,1.55-3.7l-.92-.39C1776.12,1855.7,1775.6,1856.93,1775.09,1858.16Zm20.39-43.49.88.47c.63-1.17,1.27-2.34,1.92-3.5l-.87-.48C1796.76,1812.32,1796.12,1813.49,1795.48,1814.67ZM1759,1899.16c-.48,1.25-1,2.49-1.43,3.74l.93.35c.48-1.24,1-2.49,1.43-3.73l-.93-.36Zm-166.13,122.35h4v-1h-4Zm-8,0h4v-1h-4Zm-24,0h4v-1h-4Zm8,0h4v-1h-4Zm8,0h4v-1h-4Zm24,0h4v-1h-4Zm16,0h4v-1h-4Zm-8,0h4v-1h-4Zm16,0h4v-1h-4Zm-72,0h4v-1h-4Zm-48,0h4v-1h-4Zm16,0h4v-1h-4Zm-8,0h4v-1h-4Zm16,0h4v-1h-4Zm16,0h4v-1h-4Zm-8,0h4v-1h-4Zm96,0h4v-1h-4Zm94.64-48.9q-1,1.77-2,3.48l.86.5c.66-1.15,1.32-2.32,2-3.5l-.88-.48Zm-32.76,39.29.55.84c1.11-.72,2.21-1.48,3.29-2.29l-.59-.8C1696.89,2010.44,1695.81,2011.19,1694.71,2011.9Zm-205.88,9.61h4v-1h-4Zm212.23-14.31.64.77c1-.86,2-1.74,3-2.67l-.69-.73C1703.05,2005.48,1702.06,2006.36,1701.06,2007.2Zm22.44-27.67Zm-4.27,6.73c-.75,1.12-1.5,2.21-2.27,3.28l.82.58c.76-1.08,1.53-2.18,2.28-3.3l-.83-.56Zm2.17-3.33.85.53c.71-1.12,1.41-2.25,2.1-3.41l-.85-.52C1722.81,1980.68,1722.11,1981.81,1721.4,1982.93Zm-14.55,18.87.72.69q1.38-1.42,2.73-2.94l-.75-.66Q1708.22,2000.39,1706.85,2001.8Zm-58,19.71h4v-1h-4Zm8,0h4v-1h-4Zm-16,0h4v-1h-4Zm31.9-1.44.13,1c1.35-.17,2.67-.39,4-.66l-.2-1C1675.35,2019.69,1674.05,2019.9,1672.73,2020.07Zm7.72-1.6.28,1c1.29-.38,2.56-.8,3.81-1.27l-.35-.93C1683,2017.7,1681.72,2018.11,1680.45,2018.47Zm7.37-2.75.42.91c1.21-.56,2.4-1.17,3.58-1.82l-.49-.88C1690.18,2014.57,1689,2015.17,1687.82,2015.72Zm-22.12,4.79h-.87v1h.87c1.06,0,2.11,0,3.15-.08l0-1C1667.78,2020.49,1666.75,2020.51,1665.7,2020.51Zm48.9-27.76c-.81,1.06-1.63,2.1-2.47,3.12l.78.63c.84-1,1.66-2.07,2.49-3.15l-.8-.6Zm370.45-443.44.87.48c.65-1.17,1.29-2.34,1.94-3.49l-.87-.49C2086.34,1547,2085.69,1548.13,2085.05,1549.31Zm-1.91,3.53c-.62,1.17-1.25,2.35-1.87,3.54l.88.47,1.87-3.54-.88-.47Zm5.84-10.51.86.5c.68-1.17,1.36-2.31,2-3.44l-.86-.52C2090.34,1540,2089.66,1541.16,2089,1542.33Zm-11.38,21.18.89.45c.61-1.2,1.21-2.39,1.82-3.56l-.89-.46C2078.81,1561.12,2078.21,1562.31,2077.6,1563.51Zm-3.59,7.16.89.44,1.79-3.58-.89-.45C2075.2,1568.27,2074.6,1569.46,2074,1570.67Zm28.28-48.39.78.61c.84-1.05,1.68-2.08,2.52-3.07l-.76-.65C2104,1520.17,2103.13,1521.21,2102.29,1522.28ZM2091,1538.87Zm-45.94,88.86.88.48,1.92-3.51-.88-.48Q2046.05,1626,2045.08,1627.73Zm52.44-99,.83.57c.76-1.1,1.54-2.19,2.31-3.24l-.8-.6C2099.07,1526.54,2098.3,1527.63,2097.52,1528.74Zm-44.91,84.92.89.46c.62-1.18,1.23-2.37,1.84-3.55l-.89-.46C2053.84,1611.29,2053.23,1612.48,2052.61,1613.66Zm17.85-35.81.9.44,1.77-3.59-.9-.44C2071.64,1575.45,2071.05,1576.64,2070.46,1577.85Zm-14.2,28.69.9.46,1.8-3.58-.89-.45C2057.47,1604.16,2056.87,1605.35,2056.26,1606.54Zm-5.49,10.65c-.62,1.18-1.24,2.35-1.87,3.52l.88.48,1.87-3.53-.88-.47Zm9.09-17.8.89.45c.6-1.2,1.19-2.39,1.78-3.59l-.89-.44Zm7.07-14.35.9.44c.59-1.21,1.18-2.4,1.76-3.6l-.89-.44Zm-3.52,7.18.89.44c.6-1.2,1.19-2.39,1.77-3.59l-.9-.44Zm29.71-56.77.84.53q1.08-1.71,2.16-3.36l-.84-.55C2094.56,1533.18,2093.83,1534.3,2093.12,1535.45Zm89.41-37.78.25,1c1.28-.33,2.57-.7,3.86-1.1l-.29-1C2185.07,1497,2183.8,1497.34,2182.53,1497.67Zm-7.78,1.62.16,1c1.31-.21,2.63-.45,4-.73l-.2-1C2177.35,1498.84,2176.05,1499.08,2174.75,1499.29Zm15.35-4,.35.94c1.24-.46,2.48-1,3.73-1.5l-.4-.92C2192.55,1494.35,2191.32,1494.85,2190.1,1495.3Zm17.49-9.23c-1.1.77-2.2,1.5-3.3,2.2l.54.84c1.11-.7,2.22-1.44,3.34-2.22l-.58-.82Zm-10.21,6.08.44.9c1.19-.59,2.37-1.21,3.56-1.88l-.5-.87C2199.72,1491,2198.55,1491.57,2197.38,1492.15Zm13.41-8.44.61.8c1-.81,2.08-1.65,3.12-2.53l-.64-.76Q2212.34,1482.53,2210.79,1483.71Zm-103.28,32.46.73.68c.92-1,1.85-1.93,2.79-2.83l-.7-.72C2109.38,1514.21,2108.44,1515.17,2107.51,1516.17Zm63.3-16.33c-1.32.16-2.64.29-4,.4l.09,1c1.32-.1,2.65-.24,4-.4l-.12-1Zm-47.44,4.11c-1.2.58-2.38,1.22-3.54,1.93l.52.85c1.14-.69,2.29-1.31,3.46-1.87l-.44-.9Zm-10,6.65.65.77c1-.87,2.06-1.69,3.1-2.45l-.59-.81C2115.42,1508.89,2114.36,1509.72,2113.32,1510.6Zm13.77-8.2.33.94a34.94,34.94,0,0,1,3.75-1.09l-.22-1A34.16,34.16,0,0,0,2127.09,1502.4Zm31.81-1.76,0,1c1.33,0,2.66-.08,4-.15l0-1C2161.54,1500.56,2160.22,1500.61,2158.9,1500.64Zm-8,0,0,1c1.26,0,2.54,0,3.82,0h.19v-1h-.19C2153.44,1500.68,2152.17,1500.67,2150.92,1500.65Zm-16-.05.11,1a33.18,33.18,0,0,1,3.76-.21h.14v-1h-.14A35.28,35.28,0,0,0,2134.9,1500.6Zm8,.87,4,.1,0-1-4-.1Zm-163.65,205.25.55.83c1.12-.74,2.22-1.5,3.3-2.27l-.57-.82C1981.44,1705.23,1980.35,1706,1979.25,1706.72Zm-51.56,19.77.14,1q2-.29,4-.63l-.17-1C1930.32,1726.09,1929,1726.3,1927.69,1726.49Zm-7.92.89.09,1q2-.17,4-.39l-.11-1C1922.43,1727.14,1921.11,1727.27,1919.77,1727.38Zm121.37-92.69.87.5c.67-1.16,1.33-2.32,2-3.48l-.87-.5C2042.47,1632.38,2041.81,1633.53,2041.14,1634.69Zm-137.32,93.88.12,1c1.31-.16,2.62-.29,4-.41l-.09-1Q1905.8,1728.33,1903.82,1728.57Zm10.34-.84-2.36.12.06,1,2.34-.12,1.65-.08,0-1Zm36.69-6.83.33.95c1.27-.44,2.53-.9,3.77-1.38l-.36-.93C1953.36,1720,1952.11,1720.47,1950.85,1720.9Zm-7.59,2.36.27,1c1.29-.35,2.57-.73,3.84-1.12l-.29-1C1945.82,1722.54,1944.54,1722.91,1943.26,1723.26Zm-7.73,1.86.2,1c1.32-.27,2.62-.57,3.91-.88l-.23-1C1938.13,1724.56,1936.83,1724.85,1935.53,1725.12Zm-90.41,27.32.61.79c1-.81,2.12-1.6,3.19-2.37l-.58-.82C1847.25,1750.82,1846.18,1751.62,1845.12,1752.44Zm13.31-8.93.5.87c1.15-.66,2.31-1.31,3.48-1.94l-.47-.88Q1860.17,1742.51,1858.43,1743.51Zm-6.8,4.25.56.83q1.65-1.11,3.33-2.16l-.53-.85C1853.86,1746.29,1852.74,1747,1851.63,1747.76Zm106.65-29.71.39.93c1.23-.53,2.46-1.07,3.67-1.62l-.42-.91C1960.72,1717,1959.5,1717.54,1958.28,1718.05ZM1892,1730.56c-1.32.28-2.62.59-3.9.91l.24,1c1.28-.32,2.57-.62,3.87-.91l-.21-1Zm-11.61,3.14.31,1c1.26-.41,2.52-.8,3.8-1.17l-.27-1C1882.91,1732.9,1881.63,1733.29,1880.36,1733.7Zm-14.85,6,.44.9q1.79-.87,3.6-1.68l-.4-.92C1867.92,1738.58,1866.71,1739.15,1865.51,1739.73Zm7.32-3.27.38.93c1.22-.5,2.46-1,3.71-1.43l-.34-.94C1875.31,1735.48,1874.07,1736,1872.83,1736.46Zm27-7.36c-1.33.21-2.65.43-3.95.67l.18,1c1.29-.24,2.6-.46,3.92-.66l-.15-1Zm124.08-67.44.81.58c.78-1.09,1.55-2.18,2.31-3.28l-.82-.57C2025.47,1659.49,2024.7,1660.57,2023.93,1661.66Zm-4.75,6.42.8.6c.81-1.06,1.61-2.13,2.4-3.2l-.8-.6C2020.79,1666,2020,1667,2019.18,1668.08Zm7-9.69Zm6.62-10,.84.54c.72-1.13,1.44-2.27,2.14-3.41l-.85-.52C2034.28,1646.14,2033.57,1647.28,2032.85,1648.4Zm4.22-6.81.86.51c.69-1.14,1.38-2.29,2.06-3.45l-.86-.5C2038.45,1639.3,2037.76,1640.44,2037.07,1641.59Zm-22.85,32.74.78.63c.84-1,1.68-2.07,2.51-3.11l-.78-.62C2015.9,1672.27,2015.07,1673.3,2014.22,1674.33Zm14.26-19.24.83.56c.74-1.11,1.48-2.22,2.21-3.34l-.83-.55C2030,1652.88,2029.22,1654,2028.48,1655.09Zm-189.57,102.42.66.76c1-.87,2-1.73,3-2.57l-.63-.77C1840.94,1755.78,1839.92,1756.64,1838.91,1757.51Zm146.83-55.4.6.79c1.06-.8,2.11-1.62,3.15-2.45l-.62-.78C1987.84,1700.5,1986.79,1701.31,1985.74,1702.11Zm-20.24,12.62.45.89c1.2-.6,2.38-1.22,3.56-1.85l-.48-.88C1967.87,1713.52,1966.69,1714.13,1965.5,1714.73Zm7-3.79.5.86c1.16-.67,2.3-1.36,3.44-2.07l-.53-.85C1974.78,1709.58,1973.65,1710.27,1972.5,1710.94Zm36.54-30.55.74.67c.89-1,1.77-2,2.64-3l-.76-.65C2010.79,1678.4,2009.92,1679.4,2009,1680.39Zm-5.45,5.85.72.7c.93-1,1.86-1.93,2.77-2.92l-.73-.68C2005.44,1684.32,2004.52,1685.29,2003.59,1686.24Zm-5.7,5.6.68.73c1-.91,2-1.84,2.9-2.78l-.7-.71C1999.82,1690,1998.86,1690.94,1997.89,1691.84Zm-6,5.3.64.77c1-.86,2-1.74,3-2.63l-.66-.75C1994,1695.42,1993,1696.29,1991.94,1697.14Zm-495.12,324.37h4v-1h-4ZM989.33,1669.42c.81,1,1.64,2.11,2.47,3.15l.79-.63c-.84-1-1.66-2.08-2.47-3.14Zm-1.62-3.8Zm-3.16-2.62c.77,1.08,1.56,2.15,2.36,3.22l.8-.6c-.8-1.06-1.58-2.13-2.35-3.21Zm27,29.45-.68.73c1,.91,2,1.81,3,2.69l.66-.75h0C1013.46,1694.24,1012.48,1693.35,1011.5,1692.45Zm-11.92-10.7c.89,1,1.8,2,2.71,3l.73-.69c-.91-1-1.81-1.94-2.7-2.93Zm-5.24-6.07c.85,1,1.71,2,2.59,3.06l.75-.66c-.86-1-1.72-2-2.58-3Zm10.73,11.91c.93,1,1.88,1.9,2.84,2.83l.7-.72c-1-.92-1.9-1.86-2.83-2.81Zm-29.5-37.83c.72,1.12,1.44,2.24,2.18,3.36l.83-.55c-.73-1.11-1.45-2.23-2.17-3.35Zm4.4,6.68c.75,1.11,1.5,2.21,2.26,3.3l.82-.57c-.76-1.09-1.51-2.19-2.25-3.29Zm-28-48.61c.6,1.19,1.21,2.38,1.82,3.57l.89-.46-1.82-3.56Zm-3.6-7.15,1.79,3.58.89-.45-1.79-3.58ZM971.33,1643c.69,1.15,1.39,2.28,2.1,3.42l.85-.53c-.71-1.13-1.4-2.27-2.1-3.41Zm-15.66-28,1.86,3.55.89-.47c-.63-1.18-1.24-2.36-1.86-3.54Zm11.56,21.1c.67,1.16,1.35,2.31,2,3.46l.86-.51c-.68-1.15-1.36-2.3-2-3.46Zm-7.81-14,1.91,3.52.88-.48c-.64-1.17-1.28-2.34-1.91-3.52Zm3.84,7,2,3.49.87-.5c-.66-1.16-1.32-2.32-2-3.48Zm146.54,100.17Zm-12-.33c1.34.09,2.66.19,4,.32l.1-1c-1.32-.13-2.66-.24-4-.33Zm-16-1.3c1.31.17,2.64.34,4,.48l.1-1c-1.33-.14-2.64-.3-4-.47Zm-15.72-3.15c1.28.34,2.58.67,3.89,1l.23-1c-1.3-.3-2.59-.62-3.86-1Zm-49.26-26c1,.86,2.06,1.7,3.1,2.52l.62-.78c-1-.82-2.06-1.66-3.08-2.51Zm72.95,30c1.32.1,2.65.18,4,.25l0-1c-1.34-.06-2.66-.15-4-.25Zm23.77,2.47c1.31.25,2.61.52,3.89.81l.22-1c-1.29-.29-2.6-.56-3.92-.81Zm-7.86-1.25c1.33.17,2.64.35,3.94.56l.16-1c-1.31-.2-2.64-.39-4-.56ZM944.85,1593.5l1.77,3.59.9-.44h0c-.6-1.2-1.18-2.4-1.77-3.59Zm129.06,132.78c1.3.26,2.61.5,3.94.72l.17-1c-1.32-.22-2.62-.46-3.92-.72Zm-50.79-22.84c1.07.8,2.15,1.58,3.24,2.35l.57-.82h0c-1.09-.76-2.16-1.54-3.23-2.33Zm35.3,18.7c1.26.43,2.54.84,3.82,1.23l.29-1c-1.27-.39-2.54-.79-3.79-1.21Zm-28.74-14.1c1.11.74,2.24,1.46,3.38,2.16l.53-.85c-1.13-.7-2.25-1.41-3.36-2.14Zm-9.12-7.82Zm30.35,19.11c1.23.51,2.48,1,3.73,1.47l.36-.94h0c-1.25-.47-2.48-.95-3.7-1.46Zm-14.39-7.07c1.16.66,2.33,1.31,3.51,1.93l.47-.88q-1.76-.93-3.48-1.92Zm7.09,3.76c1.19.59,2.4,1.16,3.62,1.71l.41-.91c-1.21-.54-2.41-1.11-3.6-1.69ZM935.15,1571.5l-.9.45c.59,1.19,1.19,2.38,1.78,3.59l.9-.45h0Zm-100.4-71.08c1.34.2,2.67.37,4,.52l.11-1c-1.31-.15-2.63-.32-4-.52Zm109.23,89Zm-132.21-96q1.83.88,3.66,1.65l.39-.92c-1.21-.51-2.41-1-3.62-1.63Zm7.41,3.1c1.27.45,2.55.87,3.82,1.25l.28-1c-1.25-.37-2.51-.78-3.77-1.23Zm23.63,3.75-.07,1c1.34.11,2.68.18,4,.24l0-1h0C845.47,1500.48,844.14,1500.41,842.81,1500.31Zm26.4.08-2.46.06,0,1,2.47-.06h1.51l0-1h-1.56Zm-15.19.29-3.25,0v1l3.26,0h.75v-1Zm8.73-.13c-1.32,0-2.65.07-4,.09v1l4-.09,0-1Zm-81.92-32.17c.87,1,1.74,2,2.62,3l.74-.66c-.86-1-1.73-2-2.59-3Zm1438.9,7.47Zm0,0c-1,1-1.92,1.86-2.87,2.74l.67.74c1-.88,1.91-1.79,2.86-2.73v-.08ZM874.81,1500.72l-.14,1a33,33,0,0,1,3.84.77l.25-1h0A32.86,32.86,0,0,0,874.81,1500.72Zm-70.09-11.11c1.16.71,2.32,1.38,3.47,2l.48-.88c-1.14-.62-2.28-1.29-3.43-2Zm-18.56-15.24q1.41,1.47,2.82,2.85l.7-.72q-1.39-1.37-2.79-2.82Zm11.93,10.71c1.09.82,2.17,1.6,3.26,2.34l.56-.82c-1.07-.74-2.14-1.51-3.21-2.32Zm-6.18-5.12c1,.92,2,1.79,3,2.63l.64-.77c-1-.83-2-1.7-3-2.6Zm35.2,17.94-.24,1q2,.48,3.93.87l.19-1h0C829.7,1498.5,828.41,1498.22,827.11,1497.9ZM927,1557.67l1.84,3.56.89-.46-1.84-3.56Zm3.65,7.12c.6,1.18,1.2,2.38,1.8,3.58l.9-.45c-.61-1.2-1.21-2.4-1.8-3.58Zm-7.4-14.17c.63,1.16,1.26,2.33,1.89,3.52l.88-.47c-.63-1.19-1.26-2.37-1.9-3.53Zm-41-46.94a35.67,35.67,0,0,1,3.58,1.61l.46-.89a37.65,37.65,0,0,0-3.68-1.65Zm59.1,82.64c.59,1.19,1.17,2.39,1.76,3.59l.9-.44c-.59-1.21-1.18-2.4-1.76-3.6Zm180,146.35c1.29.34,2.56.69,3.82,1.07l.29-1c-1.27-.38-2.56-.74-3.86-1.08ZM937.8,1579.13l1.76,3.59.9-.44-1.77-3.59Zm-18.43-35.49,2,3.47.87-.48c-.66-1.18-1.32-2.34-2-3.49Zm-26.33-35Zm2.46,3.3c1,.85,1.94,1.75,2.89,2.69l.71-.71c-1-1-2-1.87-2.94-2.74Zm-6.29-4.75c1.09.69,2.16,1.44,3.23,2.25l.6-.8c-1.08-.82-2.18-1.59-3.3-2.29Zm17,16.4c.8,1,1.59,2.09,2.38,3.18l.81-.58h0c-.79-1.1-1.59-2.17-2.4-3.22Zm4.67,6.45c.75,1.08,1.48,2.19,2.21,3.32l.84-.55c-.73-1.13-1.47-2.25-2.22-3.34Zm4.35,6.69c.7,1.12,1.39,2.25,2.08,3.41l.86-.51c-.7-1.16-1.39-2.31-2.09-3.43Zm-14.13-19.24q1.32,1.44,2.61,3l.77-.64q-1.31-1.58-2.64-3Zm467.69,504h4v-1h-4Zm-54.54-8.25q1.71,1.07,3.48,2l.47-.89c-1.16-.61-2.3-1.27-3.42-2Zm7.09,3.77c1.23.54,2.47,1,3.73,1.48l.34-1c-1.24-.43-2.46-.92-3.67-1.45Zm-13-9.24-.63.78c1,.85,2.11,1.66,3.19,2.44l.58-.81h0C1310.48,2009.44,1309.43,2008.63,1308.4,2007.79Zm-6.57-4.63c1,1,1.92,1.88,2.89,2.78l.68-.74c-1-.88-1.92-1.8-2.86-2.75Zm27.1,16.53c1.29.35,2.59.65,3.92.89l.18-1q-2-.36-3.84-.87Zm15.9,1.82h4v-1h-4Zm-48.41-24.3q1.3,1.56,2.64,3l.74-.67q-1.32-1.46-2.61-3Zm56.41,24.3h4v-1h-4Zm-16-.33c1.31.14,2.64.24,4,.29l0-1c-1.33,0-2.64-.15-3.93-.29Zm-65-65.19c.57,1.22,1.13,2.43,1.71,3.63l.9-.44c-.57-1.19-1.14-2.4-1.7-3.61Zm3.46,7.23c.59,1.21,1.19,2.4,1.8,3.58l.89-.45h0q-.9-1.77-1.8-3.57Zm-9.93-21.9c.52,1.24,1,2.47,1.57,3.69l.92-.4c-.53-1.21-1-2.44-1.57-3.67Zm13.58,29c.63,1.19,1.27,2.37,1.91,3.52l.88-.48c-.64-1.15-1.28-2.32-1.91-3.51Zm8.06,13.87c.73,1.14,1.47,2.25,2.22,3.35l.82-.56h0q-1.11-1.63-2.19-3.33Zm-4.17-6.85c.68,1.16,1.36,2.31,2,3.45l.85-.52h0c-.68-1.12-1.36-2.26-2-3.42Zm8.69,13.49c.79,1.09,1.59,2.16,2.41,3.21l.79-.61c-.81-1-1.6-2.1-2.39-3.19Zm-23-42.19c.54,1.23,1.08,2.45,1.63,3.66l.91-.41c-.54-1.21-1.09-2.42-1.62-3.65Zm172.32,72.83h4v-1h-4Zm-8,0h4v-1h-4Zm-72,0h4v-1h-4Zm112,0h4v-1h-4Zm-16,0h4v-1h-4Zm-32,0h4v-1h-4Zm-295.9-286.57c1.26.42,2.51.87,3.75,1.33l.35-.94c-1.25-.46-2.51-.91-3.78-1.34Zm319.9,286.57h4v-1h-4Zm-72,0h4v-1h-4Zm104,0h4v-1h-4Zm-64,0h4v-1h-4Zm-32,0h4v-1h-4Zm24,0h4v-1h-4Zm-16,0h4v-1h-4Zm8,0h4v-1h-4Zm64,0h4v-1h-4Zm-273.4-239.25c.81,1,1.6,2.12,2.39,3.19l.81-.59q-1.19-1.62-2.4-3.21Zm4.72,6.44c.76,1.08,1.52,2.18,2.27,3.28l.83-.56c-.76-1.11-1.51-2.21-2.28-3.3Zm-9.69-12.67q1.27,1.52,2.52,3.09l.78-.63c-.83-1-1.68-2.08-2.53-3.11Zm14.17,19.27c.72,1.11,1.44,2.23,2.15,3.36l.85-.53c-.72-1.13-1.44-2.26-2.17-3.37Zm4.25,6.76c.69,1.13,1.38,2.27,2,3.42l.87-.51c-.68-1.15-1.37-2.3-2.06-3.43Zm-23.67-32c.9,1,1.79,2,2.66,3l.76-.65c-.89-1-1.78-2-2.68-3Zm32.48,45.43-.88.48c.63,1.17,1.25,2.35,1.87,3.53l.88-.47h0C1214.94,1817.81,1214.32,1816.63,1213.69,1815.45Zm2.82,7.56c.6,1.18,1.2,2.37,1.79,3.57l.9-.45-1.8-3.58Zm-7.57-14.07q1,1.72,2,3.48l.88-.48h0c-.65-1.18-1.3-2.34-2-3.5ZM1143.6,1741c1.19.6,2.36,1.21,3.53,1.84l.47-.88c-1.17-.63-2.35-1.25-3.55-1.85Zm32.08,23.26c1,.93,1.88,1.87,2.81,2.83l.72-.69c-.93-1-1.87-1.92-2.83-2.85Zm-39.31-26.56c1.23.51,2.44,1,3.65,1.59l.41-.91c-1.21-.55-2.43-1.09-3.67-1.6Zm14.22,7.1q1.71,1,3.39,2.07l.53-.84c-1.13-.72-2.26-1.41-3.42-2.09Zm6.71,4.26c1.09.75,2.18,1.51,3.25,2.29l.59-.81c-1.08-.78-2.17-1.55-3.28-2.31Zm13.2,9-.66.75c1,.87,2,1.77,3,2.67l.69-.73h0C1172.5,1759.88,1171.5,1759,1170.5,1758.1Zm-6.78-4.32c1,.81,2.08,1.64,3.1,2.48l.63-.77c-1-.85-2.06-1.68-3.11-2.5ZM1242,1881.69l1.44,3.72.94-.36c-.48-1.24-1-2.48-1.45-3.73Zm5.74,14.93c.48,1.24,1,2.49,1.43,3.73l.94-.35c-.48-1.25-1-2.49-1.43-3.74Zm2.86,7.47c.48,1.25,1,2.5,1.43,3.74l.94-.36c-.48-1.24-1-2.48-1.43-3.73Zm-5.72-14.95c.48,1.25,1,2.49,1.43,3.74l.94-.36-1.44-3.74Zm14.4,37.35c.5,1.25,1,2.49,1.49,3.72l.93-.37c-.5-1.23-1-2.47-1.49-3.72Zm3,7.43c.51,1.25,1,2.48,1.52,3.71l.93-.38c-.51-1.23-1-2.46-1.52-3.71Zm-5.92-14.88c.49,1.25,1,2.49,1.46,3.73l.93-.37-1.45-3.72Zm-2.89-7.47c.49,1.25,1,2.49,1.45,3.73l.93-.36-1.44-3.73Zm-26.68-66.89,1.61,3.66.91-.4c-.53-1.22-1.07-2.45-1.61-3.67Zm12.31,29.57,1.46,3.72.93-.37-1.46-3.72Zm-15.61-36.86,1.66,3.64.91-.41c-.55-1.22-1.1-2.43-1.67-3.64Zm-3.42-7.22c.58,1.2,1.15,2.4,1.73,3.61l.9-.43c-.57-1.21-1.15-2.41-1.73-3.62Zm6,10.45Zm10.07,26.19,1.49,3.72.93-.37-1.5-3.72Zm-5.23-15.19-.92.39c.53,1.23,1,2.45,1.57,3.68l.92-.38h0C1231.94,1854.07,1231.42,1852.85,1230.89,1851.62Zm2.19,7.76,1.52,3.71.93-.37L1234,1859Z" transform="translate(-780.39 -1250.43)"/><circle class="cls-2" cx="133" cy="496.95" r="18"/><circle class="cls-2" cx="570.67" cy="465.48" r="18"/><circle class="cls-4" cx="262.67" cy="251.48" r="18"/><circle class="cls-4" cx="224.67" cy="841.48" r="8"/><circle class="cls-4" cx="148.67" cy="193.48" r="8"/><circle class="cls-4" cx="1170.5" cy="329.32" r="14"/><circle class="cls-4" cx="1385" cy="805.82" r="14"/><circle class="cls-2" cx="1121.67" cy="168.48" r="15"/><circle class="cls-2" cx="75" cy="581.95" r="6"/><circle class="cls-2" cx="627.5" cy="516.32" r="6"/><circle class="cls-2" cx="1053" cy="674.95" r="6"/><circle class="cls-2" cx="1360" cy="631.95" r="6"/></svg>